%TF.GenerationSoftware,KiCad,Pcbnew,(7.0.0)*%
%TF.CreationDate,2023-05-30T12:42:47-06:00*%
%TF.ProjectId,GolfSpeedSensor,476f6c66-5370-4656-9564-53656e736f72,rev?*%
%TF.SameCoordinates,Original*%
%TF.FileFunction,Paste,Top*%
%TF.FilePolarity,Positive*%
%FSLAX46Y46*%
G04 Gerber Fmt 4.6, Leading zero omitted, Abs format (unit mm)*
G04 Created by KiCad (PCBNEW (7.0.0)) date 2023-05-30 12:42:47*
%MOMM*%
%LPD*%
G01*
G04 APERTURE LIST*
G04 Aperture macros list*
%AMRoundRect*
0 Rectangle with rounded corners*
0 $1 Rounding radius*
0 $2 $3 $4 $5 $6 $7 $8 $9 X,Y pos of 4 corners*
0 Add a 4 corners polygon primitive as box body*
4,1,4,$2,$3,$4,$5,$6,$7,$8,$9,$2,$3,0*
0 Add four circle primitives for the rounded corners*
1,1,$1+$1,$2,$3*
1,1,$1+$1,$4,$5*
1,1,$1+$1,$6,$7*
1,1,$1+$1,$8,$9*
0 Add four rect primitives between the rounded corners*
20,1,$1+$1,$2,$3,$4,$5,0*
20,1,$1+$1,$4,$5,$6,$7,0*
20,1,$1+$1,$6,$7,$8,$9,0*
20,1,$1+$1,$8,$9,$2,$3,0*%
G04 Aperture macros list end*
%ADD10R,1.500000X0.550000*%
%ADD11R,0.550000X1.500000*%
%ADD12R,2.000000X0.500000*%
%ADD13R,1.700000X2.000000*%
%ADD14R,1.400000X1.200000*%
%ADD15RoundRect,0.150000X-0.512500X-0.150000X0.512500X-0.150000X0.512500X0.150000X-0.512500X0.150000X0*%
%ADD16RoundRect,0.250000X-0.312500X-1.450000X0.312500X-1.450000X0.312500X1.450000X-0.312500X1.450000X0*%
%ADD17RoundRect,0.100000X0.637500X0.100000X-0.637500X0.100000X-0.637500X-0.100000X0.637500X-0.100000X0*%
G04 APERTURE END LIST*
D10*
%TO.C,U1*%
X144889999Y-89349999D03*
X144889999Y-90149999D03*
X144889999Y-90949999D03*
X144889999Y-91749999D03*
X144889999Y-92549999D03*
X144889999Y-93349999D03*
X144889999Y-94149999D03*
X144889999Y-94949999D03*
X144889999Y-95749999D03*
X144889999Y-96549999D03*
X144889999Y-97349999D03*
D11*
X146589999Y-99049999D03*
X147389999Y-99049999D03*
X148189999Y-99049999D03*
X148989999Y-99049999D03*
X149789999Y-99049999D03*
X150589999Y-99049999D03*
X151389999Y-99049999D03*
X152189999Y-99049999D03*
X152989999Y-99049999D03*
X153789999Y-99049999D03*
X154589999Y-99049999D03*
D10*
X156289999Y-97349999D03*
X156289999Y-96549999D03*
X156289999Y-95749999D03*
X156289999Y-94949999D03*
X156289999Y-94149999D03*
X156289999Y-93349999D03*
X156289999Y-92549999D03*
X156289999Y-91749999D03*
X156289999Y-90949999D03*
X156289999Y-90149999D03*
X156289999Y-89349999D03*
D11*
X154589999Y-87649999D03*
X153789999Y-87649999D03*
X152989999Y-87649999D03*
X152189999Y-87649999D03*
X151389999Y-87649999D03*
X150589999Y-87649999D03*
X149789999Y-87649999D03*
X148989999Y-87649999D03*
X148189999Y-87649999D03*
X147389999Y-87649999D03*
X146589999Y-87649999D03*
%TD*%
D12*
%TO.C,J1*%
X95699999Y-90099999D03*
X95699999Y-90899999D03*
X95699999Y-91699999D03*
X95699999Y-92499999D03*
X95699999Y-93299999D03*
D13*
X95599999Y-87249999D03*
X90149999Y-87249999D03*
X95599999Y-96149999D03*
X90149999Y-96149999D03*
%TD*%
D14*
%TO.C,Y1*%
X151689999Y-103699999D03*
X149489999Y-103699999D03*
X149489999Y-105399999D03*
X151689999Y-105399999D03*
%TD*%
D15*
%TO.C,U2*%
X117312500Y-90425000D03*
X117312500Y-91375000D03*
X117312500Y-92325000D03*
X119587500Y-92325000D03*
X119587500Y-91375000D03*
X119587500Y-90425000D03*
%TD*%
D16*
%TO.C,F1*%
X100952500Y-82650000D03*
X105227500Y-82650000D03*
%TD*%
D17*
%TO.C,U3*%
X175862500Y-104755000D03*
X175862500Y-104105000D03*
X175862500Y-103455000D03*
X175862500Y-102805000D03*
X175862500Y-102155000D03*
X175862500Y-101505000D03*
X175862500Y-100855000D03*
X175862500Y-100205000D03*
X170137500Y-100205000D03*
X170137500Y-100855000D03*
X170137500Y-101505000D03*
X170137500Y-102155000D03*
X170137500Y-102805000D03*
X170137500Y-103455000D03*
X170137500Y-104105000D03*
X170137500Y-104755000D03*
%TD*%
M02*
