M48
; DRILL file {KiCad (7.0.0)} date Tue May 30 12:42:43 2023
; FORMAT={-:-/ absolute / inch / decimal}
; #@! TF.CreationDate,2023-05-30T12:42:43-06:00
; #@! TF.GenerationSoftware,Kicad,Pcbnew,(7.0.0)
; #@! TF.FileFunction,Plated,1,2,PTH
FMAT,2
INCH
; #@! TA.AperFunction,Plated,PTH,ViaDrill
T1C0.0157
; #@! TA.AperFunction,Plated,PTH,ComponentDrill
T2C0.0315
; #@! TA.AperFunction,Plated,PTH,ComponentDrill
T3C0.0354
; #@! TA.AperFunction,Plated,PTH,ComponentDrill
T4C0.0394
; #@! TA.AperFunction,Plated,PTH,ComponentDrill
T5C0.0512
%
G90
G05
T1
X3.7677Y-3.7126
X4.2953Y-3.2806
X4.2992Y-3.185
X4.6614Y-3.6811
X5.2795Y-3.7992
X5.4449Y-3.9764
X5.5827Y-3.9843
X5.6417Y-3.6417
X5.7782Y-3.8448
X5.7795Y-3.6378
X5.795Y-3.5953
X5.8031Y-3.5079
X5.8071Y-3.2244
X5.8189Y-3.3465
X5.8434Y-3.5103
X5.8661Y-3.9567
X5.8976Y-4.0276
X5.9602Y-3.8461
X5.9764Y-3.3583
X6.002Y-3.9626
X6.0315Y-4.1496
X6.0354Y-3.3868
X6.0991Y-3.7213
X6.1654Y-3.874
X6.2271Y-3.5505
X6.2283Y-3.5079
X6.2283Y-3.5945
X6.451Y-3.4346
X6.4582Y-4.0346
X6.5138Y-3.6052
X6.5258Y-3.5637
X6.5586Y-3.8727
X6.5679Y-4.0346
X6.6378Y-4.0472
X6.6443Y-3.9386
X6.7067Y-3.5998
X6.7486Y-3.6935
X6.7571Y-4.073
X6.7851Y-3.999
X6.8675Y-3.9707
X6.9134Y-3.9016
X6.9774Y-3.995
T2
X3.5906Y-4.4654
X3.5906Y-4.8654
X3.6138Y-2.5067
X3.6138Y-2.9067
X4.0008Y-3.5364
X4.0008Y-3.6585
X4.1933Y-4.0531
X4.4008Y-3.5364
X4.4008Y-3.6585
X4.5933Y-4.0531
X5.0433Y-4.4142
X5.0433Y-4.8142
X5.0594Y-4.0689
X5.3858Y-3.7244
X5.4014Y-3.3681
X5.4594Y-4.0689
X5.4843Y-3.7244
X5.4998Y-3.3681
X5.6965Y-4.0573
X5.6965Y-4.1557
X5.7756Y-4.4161
X5.7756Y-4.8161
X6.0394Y-4.4181
X6.0394Y-4.8181
X6.1571Y-4.0569
X6.1571Y-4.1553
X6.2213Y-4.5551
X6.6213Y-4.5551
X6.8028Y-4.3138
X6.8028Y-4.7138
X7.087Y-3.3169
X7.087Y-3.4547
X7.087Y-3.5965
X7.087Y-3.7303
X7.087Y-3.8681
X7.087Y-4.002
X7.087Y-4.1437
X7.087Y-4.2815
X7.487Y-3.3169
X7.487Y-3.4547
X7.487Y-3.5965
X7.487Y-3.7303
X7.487Y-3.8681
X7.487Y-4.002
X7.487Y-4.1437
X7.487Y-4.2815
X8.165Y-2.5067
X8.165Y-2.9067
T3
X3.876Y-4.0531
X3.976Y-4.0531
X5.2293Y-4.813
X5.3293Y-4.813
X5.3589Y-4.313
X5.4589Y-4.313
X5.4848Y-4.813
X5.5848Y-4.813
X6.2333Y-4.813
X6.3333Y-4.813
X6.3602Y-4.3091
X6.4602Y-4.3091
X6.4888Y-4.813
X6.5888Y-4.813
T4
X3.5413Y-4.0856
X3.5413Y-4.1856
X3.5413Y-4.2856
X3.6413Y-4.0856
X3.6413Y-4.1856
X3.6413Y-4.2856
X5.661Y-2.5083
X5.661Y-3.1083
X5.761Y-2.5083
X5.761Y-3.1083
X5.861Y-2.5083
X5.861Y-3.1083
X5.961Y-2.5083
X5.961Y-3.1083
X6.061Y-2.5083
X6.061Y-3.1083
X6.161Y-2.5083
X6.161Y-3.1083
X7.6535Y-4.6132
X7.6535Y-4.7132
X7.6535Y-4.8132
T5
X3.8736Y-2.7106
X3.8736Y-2.9075
X3.8736Y-4.4705
X3.8736Y-4.6673
X4.3657Y-2.7106
X4.3657Y-2.9075
X4.3657Y-4.4705
X4.3657Y-4.6673
X7.4484Y-2.7106
X7.4484Y-2.9075
X7.9406Y-2.7106
X7.9406Y-2.9075
T0
M30
