%TF.GenerationSoftware,KiCad,Pcbnew,(7.0.0)*%
%TF.CreationDate,2023-05-24T22:53:59-06:00*%
%TF.ProjectId,GolfSpeedSensor,476f6c66-5370-4656-9564-53656e736f72,rev?*%
%TF.SameCoordinates,Original*%
%TF.FileFunction,Drillmap*%
%TF.FilePolarity,Positive*%
%FSLAX45Y45*%
G04 Gerber Fmt 4.5, Leading zero omitted, Abs format (unit mm)*
G04 Created by KiCad (PCBNEW (7.0.0)) date 2023-05-24 22:53:59*
%MOMM*%
%LPD*%
G01*
G04 APERTURE LIST*
%ADD10C,0.100000*%
%ADD11C,0.200000*%
%ADD12C,0.300000*%
G04 APERTURE END LIST*
D10*
X21350000Y-13120000D02*
X8660000Y-13110000D01*
X8660000Y-5500000D01*
X21350000Y-5500000D01*
X21350000Y-13120000D01*
D11*
D10*
X9250000Y-8900000D02*
X9350000Y-9000000D01*
X9350000Y-8900000D02*
X9250000Y-9000000D01*
X9250000Y-9340000D02*
X9350000Y-9440000D01*
X9350000Y-9340000D02*
X9250000Y-9440000D01*
D12*
X10600000Y-5990000D02*
G75*
G03*
X10600000Y-5990000I-150000J0D01*
G01*
X10620000Y-12670000D02*
G75*
G03*
X10620000Y-12670000I-150000J0D01*
G01*
X19730000Y-6020000D02*
G75*
G03*
X19730000Y-6020000I-150000J0D01*
G01*
X20920000Y-12540000D02*
G75*
G03*
X20920000Y-12540000I-150000J0D01*
G01*
D11*
X8902619Y-13418476D02*
X8902619Y-13218476D01*
X8902619Y-13218476D02*
X8950238Y-13218476D01*
X8950238Y-13218476D02*
X8978810Y-13228000D01*
X8978810Y-13228000D02*
X8997857Y-13247048D01*
X8997857Y-13247048D02*
X9007381Y-13266095D01*
X9007381Y-13266095D02*
X9016905Y-13304190D01*
X9016905Y-13304190D02*
X9016905Y-13332762D01*
X9016905Y-13332762D02*
X9007381Y-13370857D01*
X9007381Y-13370857D02*
X8997857Y-13389905D01*
X8997857Y-13389905D02*
X8978810Y-13408952D01*
X8978810Y-13408952D02*
X8950238Y-13418476D01*
X8950238Y-13418476D02*
X8902619Y-13418476D01*
X9102619Y-13418476D02*
X9102619Y-13285143D01*
X9102619Y-13323238D02*
X9112143Y-13304190D01*
X9112143Y-13304190D02*
X9121667Y-13294667D01*
X9121667Y-13294667D02*
X9140714Y-13285143D01*
X9140714Y-13285143D02*
X9159762Y-13285143D01*
X9226429Y-13418476D02*
X9226429Y-13285143D01*
X9226429Y-13218476D02*
X9216905Y-13228000D01*
X9216905Y-13228000D02*
X9226429Y-13237524D01*
X9226429Y-13237524D02*
X9235952Y-13228000D01*
X9235952Y-13228000D02*
X9226429Y-13218476D01*
X9226429Y-13218476D02*
X9226429Y-13237524D01*
X9350238Y-13418476D02*
X9331190Y-13408952D01*
X9331190Y-13408952D02*
X9321667Y-13389905D01*
X9321667Y-13389905D02*
X9321667Y-13218476D01*
X9455000Y-13418476D02*
X9435952Y-13408952D01*
X9435952Y-13408952D02*
X9426429Y-13389905D01*
X9426429Y-13389905D02*
X9426429Y-13218476D01*
X9651190Y-13418476D02*
X9651190Y-13218476D01*
X9651190Y-13218476D02*
X9717857Y-13361333D01*
X9717857Y-13361333D02*
X9784524Y-13218476D01*
X9784524Y-13218476D02*
X9784524Y-13418476D01*
X9965476Y-13418476D02*
X9965476Y-13313714D01*
X9965476Y-13313714D02*
X9955952Y-13294667D01*
X9955952Y-13294667D02*
X9936905Y-13285143D01*
X9936905Y-13285143D02*
X9898809Y-13285143D01*
X9898809Y-13285143D02*
X9879762Y-13294667D01*
X9965476Y-13408952D02*
X9946429Y-13418476D01*
X9946429Y-13418476D02*
X9898809Y-13418476D01*
X9898809Y-13418476D02*
X9879762Y-13408952D01*
X9879762Y-13408952D02*
X9870238Y-13389905D01*
X9870238Y-13389905D02*
X9870238Y-13370857D01*
X9870238Y-13370857D02*
X9879762Y-13351809D01*
X9879762Y-13351809D02*
X9898809Y-13342286D01*
X9898809Y-13342286D02*
X9946429Y-13342286D01*
X9946429Y-13342286D02*
X9965476Y-13332762D01*
X10060714Y-13285143D02*
X10060714Y-13485143D01*
X10060714Y-13294667D02*
X10079762Y-13285143D01*
X10079762Y-13285143D02*
X10117857Y-13285143D01*
X10117857Y-13285143D02*
X10136905Y-13294667D01*
X10136905Y-13294667D02*
X10146429Y-13304190D01*
X10146429Y-13304190D02*
X10155952Y-13323238D01*
X10155952Y-13323238D02*
X10155952Y-13380381D01*
X10155952Y-13380381D02*
X10146429Y-13399428D01*
X10146429Y-13399428D02*
X10136905Y-13408952D01*
X10136905Y-13408952D02*
X10117857Y-13418476D01*
X10117857Y-13418476D02*
X10079762Y-13418476D01*
X10079762Y-13418476D02*
X10060714Y-13408952D01*
X10241667Y-13399428D02*
X10251190Y-13408952D01*
X10251190Y-13408952D02*
X10241667Y-13418476D01*
X10241667Y-13418476D02*
X10232143Y-13408952D01*
X10232143Y-13408952D02*
X10241667Y-13399428D01*
X10241667Y-13399428D02*
X10241667Y-13418476D01*
X10241667Y-13294667D02*
X10251190Y-13304190D01*
X10251190Y-13304190D02*
X10241667Y-13313714D01*
X10241667Y-13313714D02*
X10232143Y-13304190D01*
X10232143Y-13304190D02*
X10241667Y-13294667D01*
X10241667Y-13294667D02*
X10241667Y-13313714D01*
D10*
X8555000Y-13715000D02*
X8655000Y-13815000D01*
X8655000Y-13715000D02*
X8555000Y-13815000D01*
D11*
X9007381Y-13838476D02*
X8893095Y-13838476D01*
X8950238Y-13838476D02*
X8950238Y-13638476D01*
X8950238Y-13638476D02*
X8931190Y-13667048D01*
X8931190Y-13667048D02*
X8912143Y-13686095D01*
X8912143Y-13686095D02*
X8893095Y-13695619D01*
X9093095Y-13819428D02*
X9102619Y-13828952D01*
X9102619Y-13828952D02*
X9093095Y-13838476D01*
X9093095Y-13838476D02*
X9083571Y-13828952D01*
X9083571Y-13828952D02*
X9093095Y-13819428D01*
X9093095Y-13819428D02*
X9093095Y-13838476D01*
X9226429Y-13638476D02*
X9245476Y-13638476D01*
X9245476Y-13638476D02*
X9264524Y-13648000D01*
X9264524Y-13648000D02*
X9274048Y-13657524D01*
X9274048Y-13657524D02*
X9283571Y-13676571D01*
X9283571Y-13676571D02*
X9293095Y-13714667D01*
X9293095Y-13714667D02*
X9293095Y-13762286D01*
X9293095Y-13762286D02*
X9283571Y-13800381D01*
X9283571Y-13800381D02*
X9274048Y-13819428D01*
X9274048Y-13819428D02*
X9264524Y-13828952D01*
X9264524Y-13828952D02*
X9245476Y-13838476D01*
X9245476Y-13838476D02*
X9226429Y-13838476D01*
X9226429Y-13838476D02*
X9207381Y-13828952D01*
X9207381Y-13828952D02*
X9197857Y-13819428D01*
X9197857Y-13819428D02*
X9188333Y-13800381D01*
X9188333Y-13800381D02*
X9178810Y-13762286D01*
X9178810Y-13762286D02*
X9178810Y-13714667D01*
X9178810Y-13714667D02*
X9188333Y-13676571D01*
X9188333Y-13676571D02*
X9197857Y-13657524D01*
X9197857Y-13657524D02*
X9207381Y-13648000D01*
X9207381Y-13648000D02*
X9226429Y-13638476D01*
X9416905Y-13638476D02*
X9435952Y-13638476D01*
X9435952Y-13638476D02*
X9455000Y-13648000D01*
X9455000Y-13648000D02*
X9464524Y-13657524D01*
X9464524Y-13657524D02*
X9474048Y-13676571D01*
X9474048Y-13676571D02*
X9483571Y-13714667D01*
X9483571Y-13714667D02*
X9483571Y-13762286D01*
X9483571Y-13762286D02*
X9474048Y-13800381D01*
X9474048Y-13800381D02*
X9464524Y-13819428D01*
X9464524Y-13819428D02*
X9455000Y-13828952D01*
X9455000Y-13828952D02*
X9435952Y-13838476D01*
X9435952Y-13838476D02*
X9416905Y-13838476D01*
X9416905Y-13838476D02*
X9397857Y-13828952D01*
X9397857Y-13828952D02*
X9388333Y-13819428D01*
X9388333Y-13819428D02*
X9378810Y-13800381D01*
X9378810Y-13800381D02*
X9369286Y-13762286D01*
X9369286Y-13762286D02*
X9369286Y-13714667D01*
X9369286Y-13714667D02*
X9378810Y-13676571D01*
X9378810Y-13676571D02*
X9388333Y-13657524D01*
X9388333Y-13657524D02*
X9397857Y-13648000D01*
X9397857Y-13648000D02*
X9416905Y-13638476D01*
X9607381Y-13638476D02*
X9626429Y-13638476D01*
X9626429Y-13638476D02*
X9645476Y-13648000D01*
X9645476Y-13648000D02*
X9655000Y-13657524D01*
X9655000Y-13657524D02*
X9664524Y-13676571D01*
X9664524Y-13676571D02*
X9674048Y-13714667D01*
X9674048Y-13714667D02*
X9674048Y-13762286D01*
X9674048Y-13762286D02*
X9664524Y-13800381D01*
X9664524Y-13800381D02*
X9655000Y-13819428D01*
X9655000Y-13819428D02*
X9645476Y-13828952D01*
X9645476Y-13828952D02*
X9626429Y-13838476D01*
X9626429Y-13838476D02*
X9607381Y-13838476D01*
X9607381Y-13838476D02*
X9588333Y-13828952D01*
X9588333Y-13828952D02*
X9578810Y-13819428D01*
X9578810Y-13819428D02*
X9569286Y-13800381D01*
X9569286Y-13800381D02*
X9559762Y-13762286D01*
X9559762Y-13762286D02*
X9559762Y-13714667D01*
X9559762Y-13714667D02*
X9569286Y-13676571D01*
X9569286Y-13676571D02*
X9578810Y-13657524D01*
X9578810Y-13657524D02*
X9588333Y-13648000D01*
X9588333Y-13648000D02*
X9607381Y-13638476D01*
X9759762Y-13838476D02*
X9759762Y-13705143D01*
X9759762Y-13724190D02*
X9769286Y-13714667D01*
X9769286Y-13714667D02*
X9788333Y-13705143D01*
X9788333Y-13705143D02*
X9816905Y-13705143D01*
X9816905Y-13705143D02*
X9835952Y-13714667D01*
X9835952Y-13714667D02*
X9845476Y-13733714D01*
X9845476Y-13733714D02*
X9845476Y-13838476D01*
X9845476Y-13733714D02*
X9855000Y-13714667D01*
X9855000Y-13714667D02*
X9874048Y-13705143D01*
X9874048Y-13705143D02*
X9902619Y-13705143D01*
X9902619Y-13705143D02*
X9921667Y-13714667D01*
X9921667Y-13714667D02*
X9931191Y-13733714D01*
X9931191Y-13733714D02*
X9931191Y-13838476D01*
X10026429Y-13838476D02*
X10026429Y-13705143D01*
X10026429Y-13724190D02*
X10035952Y-13714667D01*
X10035952Y-13714667D02*
X10055000Y-13705143D01*
X10055000Y-13705143D02*
X10083572Y-13705143D01*
X10083572Y-13705143D02*
X10102619Y-13714667D01*
X10102619Y-13714667D02*
X10112143Y-13733714D01*
X10112143Y-13733714D02*
X10112143Y-13838476D01*
X10112143Y-13733714D02*
X10121667Y-13714667D01*
X10121667Y-13714667D02*
X10140714Y-13705143D01*
X10140714Y-13705143D02*
X10169286Y-13705143D01*
X10169286Y-13705143D02*
X10188333Y-13714667D01*
X10188333Y-13714667D02*
X10197857Y-13733714D01*
X10197857Y-13733714D02*
X10197857Y-13838476D01*
X10555952Y-13628952D02*
X10384524Y-13886095D01*
X10780714Y-13638476D02*
X10799762Y-13638476D01*
X10799762Y-13638476D02*
X10818810Y-13648000D01*
X10818810Y-13648000D02*
X10828333Y-13657524D01*
X10828333Y-13657524D02*
X10837857Y-13676571D01*
X10837857Y-13676571D02*
X10847381Y-13714667D01*
X10847381Y-13714667D02*
X10847381Y-13762286D01*
X10847381Y-13762286D02*
X10837857Y-13800381D01*
X10837857Y-13800381D02*
X10828333Y-13819428D01*
X10828333Y-13819428D02*
X10818810Y-13828952D01*
X10818810Y-13828952D02*
X10799762Y-13838476D01*
X10799762Y-13838476D02*
X10780714Y-13838476D01*
X10780714Y-13838476D02*
X10761667Y-13828952D01*
X10761667Y-13828952D02*
X10752143Y-13819428D01*
X10752143Y-13819428D02*
X10742619Y-13800381D01*
X10742619Y-13800381D02*
X10733095Y-13762286D01*
X10733095Y-13762286D02*
X10733095Y-13714667D01*
X10733095Y-13714667D02*
X10742619Y-13676571D01*
X10742619Y-13676571D02*
X10752143Y-13657524D01*
X10752143Y-13657524D02*
X10761667Y-13648000D01*
X10761667Y-13648000D02*
X10780714Y-13638476D01*
X10933095Y-13819428D02*
X10942619Y-13828952D01*
X10942619Y-13828952D02*
X10933095Y-13838476D01*
X10933095Y-13838476D02*
X10923572Y-13828952D01*
X10923572Y-13828952D02*
X10933095Y-13819428D01*
X10933095Y-13819428D02*
X10933095Y-13838476D01*
X11066429Y-13638476D02*
X11085476Y-13638476D01*
X11085476Y-13638476D02*
X11104524Y-13648000D01*
X11104524Y-13648000D02*
X11114048Y-13657524D01*
X11114048Y-13657524D02*
X11123572Y-13676571D01*
X11123572Y-13676571D02*
X11133095Y-13714667D01*
X11133095Y-13714667D02*
X11133095Y-13762286D01*
X11133095Y-13762286D02*
X11123572Y-13800381D01*
X11123572Y-13800381D02*
X11114048Y-13819428D01*
X11114048Y-13819428D02*
X11104524Y-13828952D01*
X11104524Y-13828952D02*
X11085476Y-13838476D01*
X11085476Y-13838476D02*
X11066429Y-13838476D01*
X11066429Y-13838476D02*
X11047381Y-13828952D01*
X11047381Y-13828952D02*
X11037857Y-13819428D01*
X11037857Y-13819428D02*
X11028333Y-13800381D01*
X11028333Y-13800381D02*
X11018810Y-13762286D01*
X11018810Y-13762286D02*
X11018810Y-13714667D01*
X11018810Y-13714667D02*
X11028333Y-13676571D01*
X11028333Y-13676571D02*
X11037857Y-13657524D01*
X11037857Y-13657524D02*
X11047381Y-13648000D01*
X11047381Y-13648000D02*
X11066429Y-13638476D01*
X11199762Y-13638476D02*
X11323571Y-13638476D01*
X11323571Y-13638476D02*
X11256905Y-13714667D01*
X11256905Y-13714667D02*
X11285476Y-13714667D01*
X11285476Y-13714667D02*
X11304524Y-13724190D01*
X11304524Y-13724190D02*
X11314048Y-13733714D01*
X11314048Y-13733714D02*
X11323571Y-13752762D01*
X11323571Y-13752762D02*
X11323571Y-13800381D01*
X11323571Y-13800381D02*
X11314048Y-13819428D01*
X11314048Y-13819428D02*
X11304524Y-13828952D01*
X11304524Y-13828952D02*
X11285476Y-13838476D01*
X11285476Y-13838476D02*
X11228333Y-13838476D01*
X11228333Y-13838476D02*
X11209286Y-13828952D01*
X11209286Y-13828952D02*
X11199762Y-13819428D01*
X11418810Y-13838476D02*
X11456905Y-13838476D01*
X11456905Y-13838476D02*
X11475952Y-13828952D01*
X11475952Y-13828952D02*
X11485476Y-13819428D01*
X11485476Y-13819428D02*
X11504524Y-13790857D01*
X11504524Y-13790857D02*
X11514048Y-13752762D01*
X11514048Y-13752762D02*
X11514048Y-13676571D01*
X11514048Y-13676571D02*
X11504524Y-13657524D01*
X11504524Y-13657524D02*
X11495000Y-13648000D01*
X11495000Y-13648000D02*
X11475952Y-13638476D01*
X11475952Y-13638476D02*
X11437857Y-13638476D01*
X11437857Y-13638476D02*
X11418810Y-13648000D01*
X11418810Y-13648000D02*
X11409286Y-13657524D01*
X11409286Y-13657524D02*
X11399762Y-13676571D01*
X11399762Y-13676571D02*
X11399762Y-13724190D01*
X11399762Y-13724190D02*
X11409286Y-13743238D01*
X11409286Y-13743238D02*
X11418810Y-13752762D01*
X11418810Y-13752762D02*
X11437857Y-13762286D01*
X11437857Y-13762286D02*
X11475952Y-13762286D01*
X11475952Y-13762286D02*
X11495000Y-13752762D01*
X11495000Y-13752762D02*
X11504524Y-13743238D01*
X11504524Y-13743238D02*
X11514048Y-13724190D01*
X11685476Y-13705143D02*
X11685476Y-13838476D01*
X11637857Y-13628952D02*
X11590238Y-13771809D01*
X11590238Y-13771809D02*
X11714048Y-13771809D01*
X11780714Y-13638476D02*
X11780714Y-13676571D01*
X11856905Y-13638476D02*
X11856905Y-13676571D01*
X12119762Y-13914667D02*
X12110238Y-13905143D01*
X12110238Y-13905143D02*
X12091191Y-13876571D01*
X12091191Y-13876571D02*
X12081667Y-13857524D01*
X12081667Y-13857524D02*
X12072143Y-13828952D01*
X12072143Y-13828952D02*
X12062619Y-13781333D01*
X12062619Y-13781333D02*
X12062619Y-13743238D01*
X12062619Y-13743238D02*
X12072143Y-13695619D01*
X12072143Y-13695619D02*
X12081667Y-13667048D01*
X12081667Y-13667048D02*
X12091191Y-13648000D01*
X12091191Y-13648000D02*
X12110238Y-13619428D01*
X12110238Y-13619428D02*
X12119762Y-13609905D01*
X12186429Y-13657524D02*
X12195952Y-13648000D01*
X12195952Y-13648000D02*
X12215000Y-13638476D01*
X12215000Y-13638476D02*
X12262619Y-13638476D01*
X12262619Y-13638476D02*
X12281667Y-13648000D01*
X12281667Y-13648000D02*
X12291191Y-13657524D01*
X12291191Y-13657524D02*
X12300714Y-13676571D01*
X12300714Y-13676571D02*
X12300714Y-13695619D01*
X12300714Y-13695619D02*
X12291191Y-13724190D01*
X12291191Y-13724190D02*
X12176905Y-13838476D01*
X12176905Y-13838476D02*
X12300714Y-13838476D01*
X12506429Y-13838476D02*
X12506429Y-13638476D01*
X12592143Y-13838476D02*
X12592143Y-13733714D01*
X12592143Y-13733714D02*
X12582619Y-13714667D01*
X12582619Y-13714667D02*
X12563572Y-13705143D01*
X12563572Y-13705143D02*
X12535000Y-13705143D01*
X12535000Y-13705143D02*
X12515952Y-13714667D01*
X12515952Y-13714667D02*
X12506429Y-13724190D01*
X12715952Y-13838476D02*
X12696905Y-13828952D01*
X12696905Y-13828952D02*
X12687381Y-13819428D01*
X12687381Y-13819428D02*
X12677857Y-13800381D01*
X12677857Y-13800381D02*
X12677857Y-13743238D01*
X12677857Y-13743238D02*
X12687381Y-13724190D01*
X12687381Y-13724190D02*
X12696905Y-13714667D01*
X12696905Y-13714667D02*
X12715952Y-13705143D01*
X12715952Y-13705143D02*
X12744524Y-13705143D01*
X12744524Y-13705143D02*
X12763572Y-13714667D01*
X12763572Y-13714667D02*
X12773095Y-13724190D01*
X12773095Y-13724190D02*
X12782619Y-13743238D01*
X12782619Y-13743238D02*
X12782619Y-13800381D01*
X12782619Y-13800381D02*
X12773095Y-13819428D01*
X12773095Y-13819428D02*
X12763572Y-13828952D01*
X12763572Y-13828952D02*
X12744524Y-13838476D01*
X12744524Y-13838476D02*
X12715952Y-13838476D01*
X12896905Y-13838476D02*
X12877857Y-13828952D01*
X12877857Y-13828952D02*
X12868333Y-13809905D01*
X12868333Y-13809905D02*
X12868333Y-13638476D01*
X13049286Y-13828952D02*
X13030238Y-13838476D01*
X13030238Y-13838476D02*
X12992143Y-13838476D01*
X12992143Y-13838476D02*
X12973095Y-13828952D01*
X12973095Y-13828952D02*
X12963572Y-13809905D01*
X12963572Y-13809905D02*
X12963572Y-13733714D01*
X12963572Y-13733714D02*
X12973095Y-13714667D01*
X12973095Y-13714667D02*
X12992143Y-13705143D01*
X12992143Y-13705143D02*
X13030238Y-13705143D01*
X13030238Y-13705143D02*
X13049286Y-13714667D01*
X13049286Y-13714667D02*
X13058810Y-13733714D01*
X13058810Y-13733714D02*
X13058810Y-13752762D01*
X13058810Y-13752762D02*
X12963572Y-13771809D01*
X13135000Y-13828952D02*
X13154048Y-13838476D01*
X13154048Y-13838476D02*
X13192143Y-13838476D01*
X13192143Y-13838476D02*
X13211191Y-13828952D01*
X13211191Y-13828952D02*
X13220714Y-13809905D01*
X13220714Y-13809905D02*
X13220714Y-13800381D01*
X13220714Y-13800381D02*
X13211191Y-13781333D01*
X13211191Y-13781333D02*
X13192143Y-13771809D01*
X13192143Y-13771809D02*
X13163572Y-13771809D01*
X13163572Y-13771809D02*
X13144524Y-13762286D01*
X13144524Y-13762286D02*
X13135000Y-13743238D01*
X13135000Y-13743238D02*
X13135000Y-13733714D01*
X13135000Y-13733714D02*
X13144524Y-13714667D01*
X13144524Y-13714667D02*
X13163572Y-13705143D01*
X13163572Y-13705143D02*
X13192143Y-13705143D01*
X13192143Y-13705143D02*
X13211191Y-13714667D01*
X13287381Y-13914667D02*
X13296905Y-13905143D01*
X13296905Y-13905143D02*
X13315953Y-13876571D01*
X13315953Y-13876571D02*
X13325476Y-13857524D01*
X13325476Y-13857524D02*
X13335000Y-13828952D01*
X13335000Y-13828952D02*
X13344524Y-13781333D01*
X13344524Y-13781333D02*
X13344524Y-13743238D01*
X13344524Y-13743238D02*
X13335000Y-13695619D01*
X13335000Y-13695619D02*
X13325476Y-13667048D01*
X13325476Y-13667048D02*
X13315953Y-13648000D01*
X13315953Y-13648000D02*
X13296905Y-13619428D01*
X13296905Y-13619428D02*
X13287381Y-13609905D01*
X13616905Y-13914667D02*
X13607381Y-13905143D01*
X13607381Y-13905143D02*
X13588333Y-13876571D01*
X13588333Y-13876571D02*
X13578810Y-13857524D01*
X13578810Y-13857524D02*
X13569286Y-13828952D01*
X13569286Y-13828952D02*
X13559762Y-13781333D01*
X13559762Y-13781333D02*
X13559762Y-13743238D01*
X13559762Y-13743238D02*
X13569286Y-13695619D01*
X13569286Y-13695619D02*
X13578810Y-13667048D01*
X13578810Y-13667048D02*
X13588333Y-13648000D01*
X13588333Y-13648000D02*
X13607381Y-13619428D01*
X13607381Y-13619428D02*
X13616905Y-13609905D01*
X13693095Y-13705143D02*
X13693095Y-13838476D01*
X13693095Y-13724190D02*
X13702619Y-13714667D01*
X13702619Y-13714667D02*
X13721667Y-13705143D01*
X13721667Y-13705143D02*
X13750238Y-13705143D01*
X13750238Y-13705143D02*
X13769286Y-13714667D01*
X13769286Y-13714667D02*
X13778810Y-13733714D01*
X13778810Y-13733714D02*
X13778810Y-13838476D01*
X13902619Y-13838476D02*
X13883572Y-13828952D01*
X13883572Y-13828952D02*
X13874048Y-13819428D01*
X13874048Y-13819428D02*
X13864524Y-13800381D01*
X13864524Y-13800381D02*
X13864524Y-13743238D01*
X13864524Y-13743238D02*
X13874048Y-13724190D01*
X13874048Y-13724190D02*
X13883572Y-13714667D01*
X13883572Y-13714667D02*
X13902619Y-13705143D01*
X13902619Y-13705143D02*
X13931191Y-13705143D01*
X13931191Y-13705143D02*
X13950238Y-13714667D01*
X13950238Y-13714667D02*
X13959762Y-13724190D01*
X13959762Y-13724190D02*
X13969286Y-13743238D01*
X13969286Y-13743238D02*
X13969286Y-13800381D01*
X13969286Y-13800381D02*
X13959762Y-13819428D01*
X13959762Y-13819428D02*
X13950238Y-13828952D01*
X13950238Y-13828952D02*
X13931191Y-13838476D01*
X13931191Y-13838476D02*
X13902619Y-13838476D01*
X14026429Y-13705143D02*
X14102619Y-13705143D01*
X14055000Y-13638476D02*
X14055000Y-13809905D01*
X14055000Y-13809905D02*
X14064524Y-13828952D01*
X14064524Y-13828952D02*
X14083572Y-13838476D01*
X14083572Y-13838476D02*
X14102619Y-13838476D01*
X14289286Y-13705143D02*
X14289286Y-13905143D01*
X14289286Y-13714667D02*
X14308333Y-13705143D01*
X14308333Y-13705143D02*
X14346429Y-13705143D01*
X14346429Y-13705143D02*
X14365476Y-13714667D01*
X14365476Y-13714667D02*
X14375000Y-13724190D01*
X14375000Y-13724190D02*
X14384524Y-13743238D01*
X14384524Y-13743238D02*
X14384524Y-13800381D01*
X14384524Y-13800381D02*
X14375000Y-13819428D01*
X14375000Y-13819428D02*
X14365476Y-13828952D01*
X14365476Y-13828952D02*
X14346429Y-13838476D01*
X14346429Y-13838476D02*
X14308333Y-13838476D01*
X14308333Y-13838476D02*
X14289286Y-13828952D01*
X14498810Y-13838476D02*
X14479762Y-13828952D01*
X14479762Y-13828952D02*
X14470238Y-13809905D01*
X14470238Y-13809905D02*
X14470238Y-13638476D01*
X14660714Y-13838476D02*
X14660714Y-13733714D01*
X14660714Y-13733714D02*
X14651191Y-13714667D01*
X14651191Y-13714667D02*
X14632143Y-13705143D01*
X14632143Y-13705143D02*
X14594048Y-13705143D01*
X14594048Y-13705143D02*
X14575000Y-13714667D01*
X14660714Y-13828952D02*
X14641667Y-13838476D01*
X14641667Y-13838476D02*
X14594048Y-13838476D01*
X14594048Y-13838476D02*
X14575000Y-13828952D01*
X14575000Y-13828952D02*
X14565476Y-13809905D01*
X14565476Y-13809905D02*
X14565476Y-13790857D01*
X14565476Y-13790857D02*
X14575000Y-13771809D01*
X14575000Y-13771809D02*
X14594048Y-13762286D01*
X14594048Y-13762286D02*
X14641667Y-13762286D01*
X14641667Y-13762286D02*
X14660714Y-13752762D01*
X14727381Y-13705143D02*
X14803572Y-13705143D01*
X14755953Y-13638476D02*
X14755953Y-13809905D01*
X14755953Y-13809905D02*
X14765476Y-13828952D01*
X14765476Y-13828952D02*
X14784524Y-13838476D01*
X14784524Y-13838476D02*
X14803572Y-13838476D01*
X14946429Y-13828952D02*
X14927381Y-13838476D01*
X14927381Y-13838476D02*
X14889286Y-13838476D01*
X14889286Y-13838476D02*
X14870238Y-13828952D01*
X14870238Y-13828952D02*
X14860714Y-13809905D01*
X14860714Y-13809905D02*
X14860714Y-13733714D01*
X14860714Y-13733714D02*
X14870238Y-13714667D01*
X14870238Y-13714667D02*
X14889286Y-13705143D01*
X14889286Y-13705143D02*
X14927381Y-13705143D01*
X14927381Y-13705143D02*
X14946429Y-13714667D01*
X14946429Y-13714667D02*
X14955953Y-13733714D01*
X14955953Y-13733714D02*
X14955953Y-13752762D01*
X14955953Y-13752762D02*
X14860714Y-13771809D01*
X15127381Y-13838476D02*
X15127381Y-13638476D01*
X15127381Y-13828952D02*
X15108334Y-13838476D01*
X15108334Y-13838476D02*
X15070238Y-13838476D01*
X15070238Y-13838476D02*
X15051191Y-13828952D01*
X15051191Y-13828952D02*
X15041667Y-13819428D01*
X15041667Y-13819428D02*
X15032143Y-13800381D01*
X15032143Y-13800381D02*
X15032143Y-13743238D01*
X15032143Y-13743238D02*
X15041667Y-13724190D01*
X15041667Y-13724190D02*
X15051191Y-13714667D01*
X15051191Y-13714667D02*
X15070238Y-13705143D01*
X15070238Y-13705143D02*
X15108334Y-13705143D01*
X15108334Y-13705143D02*
X15127381Y-13714667D01*
X15203572Y-13914667D02*
X15213095Y-13905143D01*
X15213095Y-13905143D02*
X15232143Y-13876571D01*
X15232143Y-13876571D02*
X15241667Y-13857524D01*
X15241667Y-13857524D02*
X15251191Y-13828952D01*
X15251191Y-13828952D02*
X15260714Y-13781333D01*
X15260714Y-13781333D02*
X15260714Y-13743238D01*
X15260714Y-13743238D02*
X15251191Y-13695619D01*
X15251191Y-13695619D02*
X15241667Y-13667048D01*
X15241667Y-13667048D02*
X15232143Y-13648000D01*
X15232143Y-13648000D02*
X15213095Y-13619428D01*
X15213095Y-13619428D02*
X15203572Y-13609905D01*
X8655000Y-14029000D02*
G75*
G03*
X8655000Y-14029000I-100000J0D01*
G01*
X8883571Y-13902476D02*
X9007381Y-13902476D01*
X9007381Y-13902476D02*
X8940714Y-13978667D01*
X8940714Y-13978667D02*
X8969286Y-13978667D01*
X8969286Y-13978667D02*
X8988333Y-13988190D01*
X8988333Y-13988190D02*
X8997857Y-13997714D01*
X8997857Y-13997714D02*
X9007381Y-14016762D01*
X9007381Y-14016762D02*
X9007381Y-14064381D01*
X9007381Y-14064381D02*
X8997857Y-14083428D01*
X8997857Y-14083428D02*
X8988333Y-14092952D01*
X8988333Y-14092952D02*
X8969286Y-14102476D01*
X8969286Y-14102476D02*
X8912143Y-14102476D01*
X8912143Y-14102476D02*
X8893095Y-14092952D01*
X8893095Y-14092952D02*
X8883571Y-14083428D01*
X9093095Y-14083428D02*
X9102619Y-14092952D01*
X9102619Y-14092952D02*
X9093095Y-14102476D01*
X9093095Y-14102476D02*
X9083571Y-14092952D01*
X9083571Y-14092952D02*
X9093095Y-14083428D01*
X9093095Y-14083428D02*
X9093095Y-14102476D01*
X9226429Y-13902476D02*
X9245476Y-13902476D01*
X9245476Y-13902476D02*
X9264524Y-13912000D01*
X9264524Y-13912000D02*
X9274048Y-13921524D01*
X9274048Y-13921524D02*
X9283571Y-13940571D01*
X9283571Y-13940571D02*
X9293095Y-13978667D01*
X9293095Y-13978667D02*
X9293095Y-14026286D01*
X9293095Y-14026286D02*
X9283571Y-14064381D01*
X9283571Y-14064381D02*
X9274048Y-14083428D01*
X9274048Y-14083428D02*
X9264524Y-14092952D01*
X9264524Y-14092952D02*
X9245476Y-14102476D01*
X9245476Y-14102476D02*
X9226429Y-14102476D01*
X9226429Y-14102476D02*
X9207381Y-14092952D01*
X9207381Y-14092952D02*
X9197857Y-14083428D01*
X9197857Y-14083428D02*
X9188333Y-14064381D01*
X9188333Y-14064381D02*
X9178810Y-14026286D01*
X9178810Y-14026286D02*
X9178810Y-13978667D01*
X9178810Y-13978667D02*
X9188333Y-13940571D01*
X9188333Y-13940571D02*
X9197857Y-13921524D01*
X9197857Y-13921524D02*
X9207381Y-13912000D01*
X9207381Y-13912000D02*
X9226429Y-13902476D01*
X9416905Y-13902476D02*
X9435952Y-13902476D01*
X9435952Y-13902476D02*
X9455000Y-13912000D01*
X9455000Y-13912000D02*
X9464524Y-13921524D01*
X9464524Y-13921524D02*
X9474048Y-13940571D01*
X9474048Y-13940571D02*
X9483571Y-13978667D01*
X9483571Y-13978667D02*
X9483571Y-14026286D01*
X9483571Y-14026286D02*
X9474048Y-14064381D01*
X9474048Y-14064381D02*
X9464524Y-14083428D01*
X9464524Y-14083428D02*
X9455000Y-14092952D01*
X9455000Y-14092952D02*
X9435952Y-14102476D01*
X9435952Y-14102476D02*
X9416905Y-14102476D01*
X9416905Y-14102476D02*
X9397857Y-14092952D01*
X9397857Y-14092952D02*
X9388333Y-14083428D01*
X9388333Y-14083428D02*
X9378810Y-14064381D01*
X9378810Y-14064381D02*
X9369286Y-14026286D01*
X9369286Y-14026286D02*
X9369286Y-13978667D01*
X9369286Y-13978667D02*
X9378810Y-13940571D01*
X9378810Y-13940571D02*
X9388333Y-13921524D01*
X9388333Y-13921524D02*
X9397857Y-13912000D01*
X9397857Y-13912000D02*
X9416905Y-13902476D01*
X9607381Y-13902476D02*
X9626429Y-13902476D01*
X9626429Y-13902476D02*
X9645476Y-13912000D01*
X9645476Y-13912000D02*
X9655000Y-13921524D01*
X9655000Y-13921524D02*
X9664524Y-13940571D01*
X9664524Y-13940571D02*
X9674048Y-13978667D01*
X9674048Y-13978667D02*
X9674048Y-14026286D01*
X9674048Y-14026286D02*
X9664524Y-14064381D01*
X9664524Y-14064381D02*
X9655000Y-14083428D01*
X9655000Y-14083428D02*
X9645476Y-14092952D01*
X9645476Y-14092952D02*
X9626429Y-14102476D01*
X9626429Y-14102476D02*
X9607381Y-14102476D01*
X9607381Y-14102476D02*
X9588333Y-14092952D01*
X9588333Y-14092952D02*
X9578810Y-14083428D01*
X9578810Y-14083428D02*
X9569286Y-14064381D01*
X9569286Y-14064381D02*
X9559762Y-14026286D01*
X9559762Y-14026286D02*
X9559762Y-13978667D01*
X9559762Y-13978667D02*
X9569286Y-13940571D01*
X9569286Y-13940571D02*
X9578810Y-13921524D01*
X9578810Y-13921524D02*
X9588333Y-13912000D01*
X9588333Y-13912000D02*
X9607381Y-13902476D01*
X9759762Y-14102476D02*
X9759762Y-13969143D01*
X9759762Y-13988190D02*
X9769286Y-13978667D01*
X9769286Y-13978667D02*
X9788333Y-13969143D01*
X9788333Y-13969143D02*
X9816905Y-13969143D01*
X9816905Y-13969143D02*
X9835952Y-13978667D01*
X9835952Y-13978667D02*
X9845476Y-13997714D01*
X9845476Y-13997714D02*
X9845476Y-14102476D01*
X9845476Y-13997714D02*
X9855000Y-13978667D01*
X9855000Y-13978667D02*
X9874048Y-13969143D01*
X9874048Y-13969143D02*
X9902619Y-13969143D01*
X9902619Y-13969143D02*
X9921667Y-13978667D01*
X9921667Y-13978667D02*
X9931191Y-13997714D01*
X9931191Y-13997714D02*
X9931191Y-14102476D01*
X10026429Y-14102476D02*
X10026429Y-13969143D01*
X10026429Y-13988190D02*
X10035952Y-13978667D01*
X10035952Y-13978667D02*
X10055000Y-13969143D01*
X10055000Y-13969143D02*
X10083572Y-13969143D01*
X10083572Y-13969143D02*
X10102619Y-13978667D01*
X10102619Y-13978667D02*
X10112143Y-13997714D01*
X10112143Y-13997714D02*
X10112143Y-14102476D01*
X10112143Y-13997714D02*
X10121667Y-13978667D01*
X10121667Y-13978667D02*
X10140714Y-13969143D01*
X10140714Y-13969143D02*
X10169286Y-13969143D01*
X10169286Y-13969143D02*
X10188333Y-13978667D01*
X10188333Y-13978667D02*
X10197857Y-13997714D01*
X10197857Y-13997714D02*
X10197857Y-14102476D01*
X10555952Y-13892952D02*
X10384524Y-14150095D01*
X10780714Y-13902476D02*
X10799762Y-13902476D01*
X10799762Y-13902476D02*
X10818810Y-13912000D01*
X10818810Y-13912000D02*
X10828333Y-13921524D01*
X10828333Y-13921524D02*
X10837857Y-13940571D01*
X10837857Y-13940571D02*
X10847381Y-13978667D01*
X10847381Y-13978667D02*
X10847381Y-14026286D01*
X10847381Y-14026286D02*
X10837857Y-14064381D01*
X10837857Y-14064381D02*
X10828333Y-14083428D01*
X10828333Y-14083428D02*
X10818810Y-14092952D01*
X10818810Y-14092952D02*
X10799762Y-14102476D01*
X10799762Y-14102476D02*
X10780714Y-14102476D01*
X10780714Y-14102476D02*
X10761667Y-14092952D01*
X10761667Y-14092952D02*
X10752143Y-14083428D01*
X10752143Y-14083428D02*
X10742619Y-14064381D01*
X10742619Y-14064381D02*
X10733095Y-14026286D01*
X10733095Y-14026286D02*
X10733095Y-13978667D01*
X10733095Y-13978667D02*
X10742619Y-13940571D01*
X10742619Y-13940571D02*
X10752143Y-13921524D01*
X10752143Y-13921524D02*
X10761667Y-13912000D01*
X10761667Y-13912000D02*
X10780714Y-13902476D01*
X10933095Y-14083428D02*
X10942619Y-14092952D01*
X10942619Y-14092952D02*
X10933095Y-14102476D01*
X10933095Y-14102476D02*
X10923572Y-14092952D01*
X10923572Y-14092952D02*
X10933095Y-14083428D01*
X10933095Y-14083428D02*
X10933095Y-14102476D01*
X11133095Y-14102476D02*
X11018810Y-14102476D01*
X11075952Y-14102476D02*
X11075952Y-13902476D01*
X11075952Y-13902476D02*
X11056905Y-13931048D01*
X11056905Y-13931048D02*
X11037857Y-13950095D01*
X11037857Y-13950095D02*
X11018810Y-13959619D01*
X11323571Y-14102476D02*
X11209286Y-14102476D01*
X11266429Y-14102476D02*
X11266429Y-13902476D01*
X11266429Y-13902476D02*
X11247381Y-13931048D01*
X11247381Y-13931048D02*
X11228333Y-13950095D01*
X11228333Y-13950095D02*
X11209286Y-13959619D01*
X11437857Y-13988190D02*
X11418810Y-13978667D01*
X11418810Y-13978667D02*
X11409286Y-13969143D01*
X11409286Y-13969143D02*
X11399762Y-13950095D01*
X11399762Y-13950095D02*
X11399762Y-13940571D01*
X11399762Y-13940571D02*
X11409286Y-13921524D01*
X11409286Y-13921524D02*
X11418810Y-13912000D01*
X11418810Y-13912000D02*
X11437857Y-13902476D01*
X11437857Y-13902476D02*
X11475952Y-13902476D01*
X11475952Y-13902476D02*
X11495000Y-13912000D01*
X11495000Y-13912000D02*
X11504524Y-13921524D01*
X11504524Y-13921524D02*
X11514048Y-13940571D01*
X11514048Y-13940571D02*
X11514048Y-13950095D01*
X11514048Y-13950095D02*
X11504524Y-13969143D01*
X11504524Y-13969143D02*
X11495000Y-13978667D01*
X11495000Y-13978667D02*
X11475952Y-13988190D01*
X11475952Y-13988190D02*
X11437857Y-13988190D01*
X11437857Y-13988190D02*
X11418810Y-13997714D01*
X11418810Y-13997714D02*
X11409286Y-14007238D01*
X11409286Y-14007238D02*
X11399762Y-14026286D01*
X11399762Y-14026286D02*
X11399762Y-14064381D01*
X11399762Y-14064381D02*
X11409286Y-14083428D01*
X11409286Y-14083428D02*
X11418810Y-14092952D01*
X11418810Y-14092952D02*
X11437857Y-14102476D01*
X11437857Y-14102476D02*
X11475952Y-14102476D01*
X11475952Y-14102476D02*
X11495000Y-14092952D01*
X11495000Y-14092952D02*
X11504524Y-14083428D01*
X11504524Y-14083428D02*
X11514048Y-14064381D01*
X11514048Y-14064381D02*
X11514048Y-14026286D01*
X11514048Y-14026286D02*
X11504524Y-14007238D01*
X11504524Y-14007238D02*
X11495000Y-13997714D01*
X11495000Y-13997714D02*
X11475952Y-13988190D01*
X11704524Y-14102476D02*
X11590238Y-14102476D01*
X11647381Y-14102476D02*
X11647381Y-13902476D01*
X11647381Y-13902476D02*
X11628333Y-13931048D01*
X11628333Y-13931048D02*
X11609286Y-13950095D01*
X11609286Y-13950095D02*
X11590238Y-13959619D01*
X11780714Y-13902476D02*
X11780714Y-13940571D01*
X11856905Y-13902476D02*
X11856905Y-13940571D01*
X12119762Y-14178667D02*
X12110238Y-14169143D01*
X12110238Y-14169143D02*
X12091191Y-14140571D01*
X12091191Y-14140571D02*
X12081667Y-14121524D01*
X12081667Y-14121524D02*
X12072143Y-14092952D01*
X12072143Y-14092952D02*
X12062619Y-14045333D01*
X12062619Y-14045333D02*
X12062619Y-14007238D01*
X12062619Y-14007238D02*
X12072143Y-13959619D01*
X12072143Y-13959619D02*
X12081667Y-13931048D01*
X12081667Y-13931048D02*
X12091191Y-13912000D01*
X12091191Y-13912000D02*
X12110238Y-13883428D01*
X12110238Y-13883428D02*
X12119762Y-13873905D01*
X12281667Y-13969143D02*
X12281667Y-14102476D01*
X12234048Y-13892952D02*
X12186429Y-14035809D01*
X12186429Y-14035809D02*
X12310238Y-14035809D01*
X12506429Y-14102476D02*
X12506429Y-13902476D01*
X12592143Y-14102476D02*
X12592143Y-13997714D01*
X12592143Y-13997714D02*
X12582619Y-13978667D01*
X12582619Y-13978667D02*
X12563572Y-13969143D01*
X12563572Y-13969143D02*
X12535000Y-13969143D01*
X12535000Y-13969143D02*
X12515952Y-13978667D01*
X12515952Y-13978667D02*
X12506429Y-13988190D01*
X12715952Y-14102476D02*
X12696905Y-14092952D01*
X12696905Y-14092952D02*
X12687381Y-14083428D01*
X12687381Y-14083428D02*
X12677857Y-14064381D01*
X12677857Y-14064381D02*
X12677857Y-14007238D01*
X12677857Y-14007238D02*
X12687381Y-13988190D01*
X12687381Y-13988190D02*
X12696905Y-13978667D01*
X12696905Y-13978667D02*
X12715952Y-13969143D01*
X12715952Y-13969143D02*
X12744524Y-13969143D01*
X12744524Y-13969143D02*
X12763572Y-13978667D01*
X12763572Y-13978667D02*
X12773095Y-13988190D01*
X12773095Y-13988190D02*
X12782619Y-14007238D01*
X12782619Y-14007238D02*
X12782619Y-14064381D01*
X12782619Y-14064381D02*
X12773095Y-14083428D01*
X12773095Y-14083428D02*
X12763572Y-14092952D01*
X12763572Y-14092952D02*
X12744524Y-14102476D01*
X12744524Y-14102476D02*
X12715952Y-14102476D01*
X12896905Y-14102476D02*
X12877857Y-14092952D01*
X12877857Y-14092952D02*
X12868333Y-14073905D01*
X12868333Y-14073905D02*
X12868333Y-13902476D01*
X13049286Y-14092952D02*
X13030238Y-14102476D01*
X13030238Y-14102476D02*
X12992143Y-14102476D01*
X12992143Y-14102476D02*
X12973095Y-14092952D01*
X12973095Y-14092952D02*
X12963572Y-14073905D01*
X12963572Y-14073905D02*
X12963572Y-13997714D01*
X12963572Y-13997714D02*
X12973095Y-13978667D01*
X12973095Y-13978667D02*
X12992143Y-13969143D01*
X12992143Y-13969143D02*
X13030238Y-13969143D01*
X13030238Y-13969143D02*
X13049286Y-13978667D01*
X13049286Y-13978667D02*
X13058810Y-13997714D01*
X13058810Y-13997714D02*
X13058810Y-14016762D01*
X13058810Y-14016762D02*
X12963572Y-14035809D01*
X13135000Y-14092952D02*
X13154048Y-14102476D01*
X13154048Y-14102476D02*
X13192143Y-14102476D01*
X13192143Y-14102476D02*
X13211191Y-14092952D01*
X13211191Y-14092952D02*
X13220714Y-14073905D01*
X13220714Y-14073905D02*
X13220714Y-14064381D01*
X13220714Y-14064381D02*
X13211191Y-14045333D01*
X13211191Y-14045333D02*
X13192143Y-14035809D01*
X13192143Y-14035809D02*
X13163572Y-14035809D01*
X13163572Y-14035809D02*
X13144524Y-14026286D01*
X13144524Y-14026286D02*
X13135000Y-14007238D01*
X13135000Y-14007238D02*
X13135000Y-13997714D01*
X13135000Y-13997714D02*
X13144524Y-13978667D01*
X13144524Y-13978667D02*
X13163572Y-13969143D01*
X13163572Y-13969143D02*
X13192143Y-13969143D01*
X13192143Y-13969143D02*
X13211191Y-13978667D01*
X13287381Y-14178667D02*
X13296905Y-14169143D01*
X13296905Y-14169143D02*
X13315953Y-14140571D01*
X13315953Y-14140571D02*
X13325476Y-14121524D01*
X13325476Y-14121524D02*
X13335000Y-14092952D01*
X13335000Y-14092952D02*
X13344524Y-14045333D01*
X13344524Y-14045333D02*
X13344524Y-14007238D01*
X13344524Y-14007238D02*
X13335000Y-13959619D01*
X13335000Y-13959619D02*
X13325476Y-13931048D01*
X13325476Y-13931048D02*
X13315953Y-13912000D01*
X13315953Y-13912000D02*
X13296905Y-13883428D01*
X13296905Y-13883428D02*
X13287381Y-13873905D01*
X13616905Y-14178667D02*
X13607381Y-14169143D01*
X13607381Y-14169143D02*
X13588333Y-14140571D01*
X13588333Y-14140571D02*
X13578810Y-14121524D01*
X13578810Y-14121524D02*
X13569286Y-14092952D01*
X13569286Y-14092952D02*
X13559762Y-14045333D01*
X13559762Y-14045333D02*
X13559762Y-14007238D01*
X13559762Y-14007238D02*
X13569286Y-13959619D01*
X13569286Y-13959619D02*
X13578810Y-13931048D01*
X13578810Y-13931048D02*
X13588333Y-13912000D01*
X13588333Y-13912000D02*
X13607381Y-13883428D01*
X13607381Y-13883428D02*
X13616905Y-13873905D01*
X13693095Y-13969143D02*
X13693095Y-14102476D01*
X13693095Y-13988190D02*
X13702619Y-13978667D01*
X13702619Y-13978667D02*
X13721667Y-13969143D01*
X13721667Y-13969143D02*
X13750238Y-13969143D01*
X13750238Y-13969143D02*
X13769286Y-13978667D01*
X13769286Y-13978667D02*
X13778810Y-13997714D01*
X13778810Y-13997714D02*
X13778810Y-14102476D01*
X13902619Y-14102476D02*
X13883572Y-14092952D01*
X13883572Y-14092952D02*
X13874048Y-14083428D01*
X13874048Y-14083428D02*
X13864524Y-14064381D01*
X13864524Y-14064381D02*
X13864524Y-14007238D01*
X13864524Y-14007238D02*
X13874048Y-13988190D01*
X13874048Y-13988190D02*
X13883572Y-13978667D01*
X13883572Y-13978667D02*
X13902619Y-13969143D01*
X13902619Y-13969143D02*
X13931191Y-13969143D01*
X13931191Y-13969143D02*
X13950238Y-13978667D01*
X13950238Y-13978667D02*
X13959762Y-13988190D01*
X13959762Y-13988190D02*
X13969286Y-14007238D01*
X13969286Y-14007238D02*
X13969286Y-14064381D01*
X13969286Y-14064381D02*
X13959762Y-14083428D01*
X13959762Y-14083428D02*
X13950238Y-14092952D01*
X13950238Y-14092952D02*
X13931191Y-14102476D01*
X13931191Y-14102476D02*
X13902619Y-14102476D01*
X14026429Y-13969143D02*
X14102619Y-13969143D01*
X14055000Y-13902476D02*
X14055000Y-14073905D01*
X14055000Y-14073905D02*
X14064524Y-14092952D01*
X14064524Y-14092952D02*
X14083572Y-14102476D01*
X14083572Y-14102476D02*
X14102619Y-14102476D01*
X14289286Y-13969143D02*
X14289286Y-14169143D01*
X14289286Y-13978667D02*
X14308333Y-13969143D01*
X14308333Y-13969143D02*
X14346429Y-13969143D01*
X14346429Y-13969143D02*
X14365476Y-13978667D01*
X14365476Y-13978667D02*
X14375000Y-13988190D01*
X14375000Y-13988190D02*
X14384524Y-14007238D01*
X14384524Y-14007238D02*
X14384524Y-14064381D01*
X14384524Y-14064381D02*
X14375000Y-14083428D01*
X14375000Y-14083428D02*
X14365476Y-14092952D01*
X14365476Y-14092952D02*
X14346429Y-14102476D01*
X14346429Y-14102476D02*
X14308333Y-14102476D01*
X14308333Y-14102476D02*
X14289286Y-14092952D01*
X14498810Y-14102476D02*
X14479762Y-14092952D01*
X14479762Y-14092952D02*
X14470238Y-14073905D01*
X14470238Y-14073905D02*
X14470238Y-13902476D01*
X14660714Y-14102476D02*
X14660714Y-13997714D01*
X14660714Y-13997714D02*
X14651191Y-13978667D01*
X14651191Y-13978667D02*
X14632143Y-13969143D01*
X14632143Y-13969143D02*
X14594048Y-13969143D01*
X14594048Y-13969143D02*
X14575000Y-13978667D01*
X14660714Y-14092952D02*
X14641667Y-14102476D01*
X14641667Y-14102476D02*
X14594048Y-14102476D01*
X14594048Y-14102476D02*
X14575000Y-14092952D01*
X14575000Y-14092952D02*
X14565476Y-14073905D01*
X14565476Y-14073905D02*
X14565476Y-14054857D01*
X14565476Y-14054857D02*
X14575000Y-14035809D01*
X14575000Y-14035809D02*
X14594048Y-14026286D01*
X14594048Y-14026286D02*
X14641667Y-14026286D01*
X14641667Y-14026286D02*
X14660714Y-14016762D01*
X14727381Y-13969143D02*
X14803572Y-13969143D01*
X14755953Y-13902476D02*
X14755953Y-14073905D01*
X14755953Y-14073905D02*
X14765476Y-14092952D01*
X14765476Y-14092952D02*
X14784524Y-14102476D01*
X14784524Y-14102476D02*
X14803572Y-14102476D01*
X14946429Y-14092952D02*
X14927381Y-14102476D01*
X14927381Y-14102476D02*
X14889286Y-14102476D01*
X14889286Y-14102476D02*
X14870238Y-14092952D01*
X14870238Y-14092952D02*
X14860714Y-14073905D01*
X14860714Y-14073905D02*
X14860714Y-13997714D01*
X14860714Y-13997714D02*
X14870238Y-13978667D01*
X14870238Y-13978667D02*
X14889286Y-13969143D01*
X14889286Y-13969143D02*
X14927381Y-13969143D01*
X14927381Y-13969143D02*
X14946429Y-13978667D01*
X14946429Y-13978667D02*
X14955953Y-13997714D01*
X14955953Y-13997714D02*
X14955953Y-14016762D01*
X14955953Y-14016762D02*
X14860714Y-14035809D01*
X15127381Y-14102476D02*
X15127381Y-13902476D01*
X15127381Y-14092952D02*
X15108334Y-14102476D01*
X15108334Y-14102476D02*
X15070238Y-14102476D01*
X15070238Y-14102476D02*
X15051191Y-14092952D01*
X15051191Y-14092952D02*
X15041667Y-14083428D01*
X15041667Y-14083428D02*
X15032143Y-14064381D01*
X15032143Y-14064381D02*
X15032143Y-14007238D01*
X15032143Y-14007238D02*
X15041667Y-13988190D01*
X15041667Y-13988190D02*
X15051191Y-13978667D01*
X15051191Y-13978667D02*
X15070238Y-13969143D01*
X15070238Y-13969143D02*
X15108334Y-13969143D01*
X15108334Y-13969143D02*
X15127381Y-13978667D01*
X15203572Y-14178667D02*
X15213095Y-14169143D01*
X15213095Y-14169143D02*
X15232143Y-14140571D01*
X15232143Y-14140571D02*
X15241667Y-14121524D01*
X15241667Y-14121524D02*
X15251191Y-14092952D01*
X15251191Y-14092952D02*
X15260714Y-14045333D01*
X15260714Y-14045333D02*
X15260714Y-14007238D01*
X15260714Y-14007238D02*
X15251191Y-13959619D01*
X15251191Y-13959619D02*
X15241667Y-13931048D01*
X15241667Y-13931048D02*
X15232143Y-13912000D01*
X15232143Y-13912000D02*
X15213095Y-13883428D01*
X15213095Y-13883428D02*
X15203572Y-13873905D01*
M02*
